# xmcd
#
# Track frame offsets:
#	150
#	13752
#	32244
#	46792
#	59408
#	70821
#	83616
#	98688
#	113394
#	124717
#
# Disc length: 1805 seconds
#
# Revision: 1
# Processed by: cddbd v1.5.2PL0 Copyright (c) Steve Scherf et al.
# Submitted via: audiograbber 1.83.01
#
DISCID=73070b0a
DTITLE=Johnny Cash  - One Piece At A Time
DYEAR=1976
DGENRE=Country
TTITLE0=Let There Be Country
TTITLE1=One Piece At A Time
TTITLE2=In A Young Girl's Mind
TTITLE3=Mountain Lady
TTITLE4=Michigan City Howdy Do
TTITLE5=Sold Out Of Flagpoles
TTITLE6=Committed To Parkview
TTITLE7=Daughter Of A Railroad Man
TTITLE8=Love Has Lost Again
TTITLE9=Go On Blues
EXTD=
EXTT0=
EXTT1=
EXTT2=
EXTT3=
EXTT4=
EXTT5=
EXTT6=
EXTT7=
EXTT8=
EXTT9=
PLAYORDER=
